<?xml version="1.0" encoding="UTF-8"?>
<svg xmlns="http://www.w3.org/2000/svg" viewBox="0 0 200.85 110.42">
  <defs>
    <style>.cls-1{fill:#333;}.cls-2{fill:#87de16;}</style>
  </defs>
  <g id="Laag_2" data-name="Laag 2">
    <g id="Laag_2-2" data-name="Laag 2">
      <polygon class="cls-1" points="188.3 110.42 12.55 110.42 0 55.21 12.55 0 188.28 0 200.85 55.33 188.3 110.42"></polygon>
      <path class="cls-2" d="M179.79,4.29l4,17.22,6.42,27.7,1,4.25a9.91,9.91,0,0,0,.49,2.12c.18.34.15-.6,0-.39a3.24,3.24,0,0,0-.16.7L190.81,59l-6.07,26.19c-1.59,6.86-3.31,13.7-4.78,20.59,0,.11-.05.22-.08.33-.32,1.41,1.85,2,2.17.6l4.06-17.49,6.38-27.51c.46-2,1.12-4,1.39-6a3.79,3.79,0,0,0-.18-1.45L193,51.14l-6.14-26.46c-1.59-6.87-3-13.82-4.79-20.63,0-.12,0-.24-.08-.36-.33-1.41-2.5-.81-2.17.6Z"></path>
      <path class="cls-2" d="M17.8,3.69l-4,17.45L7.34,48.78C6.86,50.84,6.22,52.93,5.89,55c-.21,1.36.54,3.1.85,4.4l6.09,26.27c1.6,6.88,3,13.85,4.8,20.68,0,.12.05.24.08.36.33,1.41,2.5.81,2.17-.6l-4-17.26L9.48,61.3l-1-4.14a7.24,7.24,0,0,0-.46-2c-.14-.21-.17.79,0,.39a4.08,4.08,0,0,0,.17-.77L9,51.53l6.12-26.37c1.59-6.84,3.3-13.67,4.77-20.54,0-.11.05-.22.07-.33.33-1.41-1.84-2-2.17-.6Z"></path>
    </g>
  </g>
</svg>