<svg xmlns="http://www.w3.org/2000/svg" viewBox="0 0 37.31 41.88"><defs><style>.cls-1{fill:#999;}.cls-2{fill:gray;}</style></defs><g id="Laag_2" data-name="Laag 2"><g id="Laag_2-2" data-name="Laag 2"><rect class="cls-1" width="37.31" height="41.88"/><polygon class="cls-2" points="1.87 24.27 0.1 21.18 1.87 18.09 5.42 18.09 7.19 21.18 5.42 24.27 1.87 24.27"/><polygon class="cls-2" points="9.35 24.27 7.58 21.18 9.35 18.09 12.9 18.09 14.67 21.18 12.9 24.27 9.35 24.27"/><polygon class="cls-2" points="16.83 24.27 15.06 21.18 16.83 18.09 20.38 18.09 22.15 21.18 20.38 24.27 16.83 24.27"/><polygon class="cls-2" points="24.31 24.27 22.54 21.18 24.31 18.09 27.86 18.09 29.63 21.18 27.86 24.27 24.31 24.27"/><polygon class="cls-2" points="31.79 24.27 30.02 21.18 31.79 18.09 35.34 18.09 37.11 21.18 35.34 24.27 31.79 24.27"/><polygon class="cls-2" points="1.87 15.73 0.1 12.64 1.87 9.55 5.42 9.55 7.19 12.64 5.42 15.73 1.87 15.73"/><polygon class="cls-2" points="9.35 15.73 7.58 12.64 9.35 9.55 12.9 9.55 14.67 12.64 12.9 15.73 9.35 15.73"/><polygon class="cls-2" points="16.83 15.73 15.06 12.64 16.83 9.55 20.38 9.55 22.15 12.64 20.38 15.73 16.83 15.73"/><polygon class="cls-2" points="24.31 15.73 22.54 12.64 24.31 9.55 27.86 9.55 29.63 12.64 27.86 15.73 24.31 15.73"/><polygon class="cls-2" points="31.79 15.73 30.02 12.64 31.79 9.55 35.34 9.55 37.11 12.64 35.34 15.73 31.79 15.73"/><polygon class="cls-2" points="1.87 7.2 0.1 4.11 1.87 1.02 5.42 1.02 7.19 4.11 5.42 7.2 1.87 7.2"/><polygon class="cls-2" points="9.35 7.2 7.58 4.11 9.35 1.02 12.9 1.02 14.67 4.11 12.9 7.2 9.35 7.2"/><polygon class="cls-2" points="16.83 7.2 15.06 4.11 16.83 1.02 20.38 1.02 22.15 4.11 20.38 7.2 16.83 7.2"/><polygon class="cls-2" points="24.31 7.2 22.54 4.11 24.31 1.02 27.86 1.02 29.63 4.11 27.86 7.2 24.31 7.2"/><polygon class="cls-2" points="31.79 7.2 30.02 4.11 31.79 1.02 35.34 1.02 37.11 4.11 35.34 7.2 31.79 7.2"/><polygon class="cls-2" points="1.87 32.8 0.1 29.71 1.87 26.62 5.42 26.62 7.19 29.71 5.42 32.8 1.87 32.8"/><polygon class="cls-2" points="9.35 32.8 7.58 29.71 9.35 26.62 12.9 26.62 14.67 29.71 12.9 32.8 9.35 32.8"/><polygon class="cls-2" points="16.83 32.8 15.06 29.71 16.83 26.62 20.38 26.62 22.15 29.71 20.38 32.8 16.83 32.8"/><polygon class="cls-2" points="24.31 32.8 22.54 29.71 24.31 26.62 27.86 26.62 29.63 29.71 27.86 32.8 24.31 32.8"/><polygon class="cls-2" points="31.79 32.8 30.02 29.71 31.79 26.62 35.34 26.62 37.11 29.71 35.34 32.8 31.79 32.8"/><polygon class="cls-2" points="1.97 40.9 0.2 37.81 1.97 34.72 5.52 34.72 7.29 37.81 5.52 40.9 1.97 40.9"/><polygon class="cls-2" points="9.45 40.9 7.68 37.81 9.45 34.72 13 34.72 14.77 37.81 13 40.9 9.45 40.9"/><polygon class="cls-2" points="16.93 40.9 15.16 37.81 16.93 34.72 20.48 34.72 22.25 37.81 20.48 40.9 16.93 40.9"/><polygon class="cls-2" points="24.41 40.9 22.64 37.81 24.41 34.72 27.96 34.72 29.73 37.81 27.96 40.9 24.41 40.9"/><polygon class="cls-2" points="31.89 40.9 30.12 37.81 31.89 34.72 35.44 34.72 37.21 37.81 35.44 40.9 31.89 40.9"/></g></g></svg>