<svg xmlns="http://www.w3.org/2000/svg" viewBox="0 0 307.83 47.2"><defs><style>.cls-1{fill:#333;}.cls-2{fill:#4f4f4f;}.cls-3{fill:#87de16;}</style></defs><g id="Laag_2" data-name="Laag 2"><g id="Laag_2-2" data-name="Laag 2"><polygon class="cls-1" points="288.59 47.15 19.24 47.15 0 23.58 19.24 0 288.56 0 307.83 23.63 288.59 47.15"/><polygon class="cls-2" points="172.4 47.2 18.15 47.2 0 23.63 18.15 0.05 135.74 0.05 172.4 47.2"/><path class="cls-3" d="M286.35,2.13l16,19.21,2.29,2.74v-.84l-15.86,19L286.49,45c-.49.59.36,1.45.85.85l15.85-19,2.29-2.75a.6.6,0,0,0,0-.84L289.48,4,287.2,1.28c-.49-.59-1.34.26-.85.85Z"/><path class="cls-3" d="M21.82,1.33l-16,19.22L3.53,23.29a.63.63,0,0,0,0,.85l15.86,19,2.29,2.75c.49.6,1.34-.26.85-.85L6.67,26,4.38,23.29v.85l16-19.22,2.29-2.74c.49-.59-.36-1.44-.85-.85Z"/></g></g></svg>